# xmcd CD database file
#
# Track frame offsets:
#	150
#	17995
#	26180
#	39325
#	47867
#	64845
#	79715
#	90957
#	98442
#	118722
#	125777
#	138585
#	159225
#	168930
#	181425
#	193932
#	210825
#	215837
#
# Disc length: 3009 seconds
#
# Revision: 0
# Processed by: cddbd v1.4PL0 Copyright (c) Steve Scherf et al.
# Submitted via: CDex 1.50beta9
#
DISCID=f80bbf12
DTITLE=Benghazi Saxophone Quartet - Night Time Uptown
DYEAR=1996
DGENRE=Jazz
TTITLE0=Night Time Uptown
TTITLE1=Solo (Chris Mitchell)
TTITLE2=Caravan
TTITLE3=It Don't Mean a Thing (If it Ain't Got Swing)
TTITLE4=Revolutions
TTITLE5=New York/Paris/New York - Medley
TTITLE6=Muskrat Ramble
TTITLE7=Solo (Don Palmer)
TTITLE8=Melcanté
TTITLE9=Solo (Paul Cram)
TTITLE10=Strike 3
TTITLE11=Monk on Time
TTITLE12=Bop Goes the Leesel
TTITLE13=Bay of Pigs
TTITLE14=In a Minor Mood
TTITLE15=Impressions/So What
TTITLE16=Solo (Kenny MacKay)
TTITLE17=Freedom Jazz Dance
EXTD=YEAR: 1996
EXTT0=
EXTT1=
EXTT2=
EXTT3=
EXTT4=
EXTT5=
EXTT6=
EXTT7=
EXTT8=
EXTT9=
EXTT10=
EXTT11=
EXTT12=
EXTT13=
EXTT14=
EXTT15=
EXTT16=
EXTT17=
PLAYORDER=
